<svg width="796" height="300" viewBox="0 0 796 300" fill="none" xmlns="http://www.w3.org/2000/svg">
<path d="M21.1809 279.543H17.1966C17.0829 278.89 16.8734 278.311 16.568 277.807C16.2626 277.295 15.8826 276.862 15.4281 276.507C14.9735 276.152 14.4551 275.886 13.8727 275.708C13.2974 275.523 12.676 275.431 12.0083 275.431C10.8223 275.431 9.77113 275.729 8.85494 276.326C7.93874 276.915 7.22141 277.782 6.70295 278.925C6.18448 280.062 5.92525 281.45 5.92525 283.091C5.92525 284.76 6.18448 286.166 6.70295 287.31C7.22852 288.446 7.94585 289.305 8.85494 289.888C9.77113 290.463 10.8187 290.751 11.9977 290.751C12.6511 290.751 13.2619 290.665 13.8301 290.495C14.4054 290.317 14.9203 290.058 15.3748 289.717C15.8365 289.376 16.2235 288.957 16.536 288.46C16.8556 287.963 17.0758 287.395 17.1966 286.756L21.1809 286.777C21.0318 287.814 20.7086 288.787 20.2115 289.696C19.7214 290.605 19.0787 291.408 18.2832 292.104C17.4877 292.793 16.5574 293.332 15.492 293.723C14.4267 294.107 13.2441 294.298 11.9444 294.298C10.0268 294.298 8.31516 293.854 6.80948 292.967C5.3038 292.079 4.11772 290.797 3.25124 289.121C2.38477 287.445 1.95153 285.435 1.95153 283.091C1.95153 280.74 2.38832 278.73 3.2619 277.061C4.13548 275.385 5.32511 274.103 6.83079 273.215C8.33647 272.327 10.041 271.884 11.9444 271.884C13.1589 271.884 14.2882 272.054 15.3322 272.395C16.3762 272.736 17.3066 273.237 18.1234 273.897C18.9402 274.55 19.6113 275.353 20.1369 276.305C20.6696 277.249 21.0176 278.329 21.1809 279.543ZM23.8416 275.495V272.182H41.2493V275.495H34.5057V294H30.5852V275.495H23.8416ZM44.6051 294V272.182H52.7869C54.4631 272.182 55.8693 272.494 57.0057 273.119C58.1491 273.744 59.0121 274.604 59.5945 275.697C60.1839 276.784 60.4787 278.02 60.4787 279.405C60.4787 280.804 60.1839 282.047 59.5945 283.134C59.005 284.22 58.1349 285.076 56.9844 285.701C55.8338 286.319 54.4169 286.628 52.7337 286.628H47.3111V283.379H52.201C53.1811 283.379 53.9837 283.208 54.6087 282.867C55.2337 282.526 55.6953 282.058 55.9936 281.461C56.299 280.864 56.4517 280.179 56.4517 279.405C56.4517 278.631 56.299 277.949 55.9936 277.359C55.6953 276.77 55.2301 276.312 54.598 275.985C53.973 275.651 53.1669 275.484 52.1797 275.484H48.5575V294H44.6051ZM64.282 294H60.0632L67.7443 272.182H72.6236L80.3153 294H76.0966L70.2692 276.656H70.0987L64.282 294ZM64.4205 285.445H75.9261V288.62H64.4205V285.445ZM83.1891 294V272.182H87.1415V281.418H97.2516V272.182H101.215V294H97.2516V284.732H87.1415V294H83.1891ZM105.513 272.182H109.434V287.054H109.636L119.895 272.182H123.443V294H119.491V279.138H119.309L109.018 294H105.513V272.182ZM147.938 290.697L147.65 299.156H143.815V294H142.281V290.697H147.938ZM127.75 294V272.182H131.542V290.719H141.343V272.182H145.168V294H127.75ZM153.96 294H149.741L157.422 272.182H162.301L169.993 294H165.774L159.947 276.656H159.776L153.96 294ZM154.098 285.445H165.604V288.62H154.098V285.445ZM180.308 294V272.182H184.261V281.418H194.371V272.182H198.334V294H194.371V284.732H184.261V294H180.308ZM202.632 294V272.182H216.823V275.495H206.585V281.418H216.088V284.732H206.585V290.687H216.908V294H202.632ZM228.297 294V272.182H232.249V281.418H242.359V272.182H246.322V294H242.359V284.732H232.249V294H228.297ZM253.423 294H249.204L256.885 272.182H261.764L269.456 294H265.237L259.41 276.656H259.239L253.423 294ZM253.561 285.445H265.067V288.62H253.561V285.445ZM272.33 272.182H276.25V287.054H276.453L286.712 272.182H290.259V294H286.307V279.138H286.126L275.835 294H272.33V272.182ZM283.409 266.557H286.296C286.296 267.8 285.845 268.808 284.943 269.582C284.048 270.349 282.834 270.733 281.3 270.733C279.78 270.733 278.569 270.349 277.667 269.582C276.772 268.808 276.328 267.8 276.335 266.557H279.201C279.201 267.068 279.357 267.526 279.67 267.931C279.99 268.329 280.533 268.528 281.3 268.528C282.053 268.528 282.589 268.329 282.909 267.931C283.235 267.533 283.402 267.075 283.409 266.557ZM293.149 299.263V290.772H294.609C295.099 290.381 295.557 289.831 295.983 289.121C296.409 288.411 296.771 287.437 297.07 286.202C297.368 284.966 297.574 283.368 297.688 281.408L298.263 272.182H312.208V290.772H314.637V299.241H310.844V294H296.942V299.263H293.149ZM299.211 290.772H308.415V275.495H301.821L301.48 281.408C301.388 282.892 301.239 284.22 301.033 285.392C300.827 286.564 300.567 287.597 300.255 288.492C299.942 289.38 299.594 290.14 299.211 290.772ZM317.857 294V272.182H332.047V275.495H321.809V281.418H331.312V284.732H321.809V290.687H332.133V294H317.857ZM336.08 294V272.182H340.032V281.418H350.142V272.182H354.105V294H350.142V284.732H340.032V294H336.08ZM361.206 294H356.987L364.668 272.182H369.547L377.239 294H373.02L367.193 276.656H367.023L361.206 294ZM361.344 285.445H372.85V288.62H361.344V285.445ZM382.318 294.234C381.672 294.234 381.118 294.007 380.656 293.553C380.195 293.098 379.967 292.544 379.974 291.891C379.967 291.251 380.195 290.705 380.656 290.25C381.118 289.795 381.672 289.568 382.318 289.568C382.943 289.568 383.487 289.795 383.948 290.25C384.417 290.705 384.655 291.251 384.662 291.891C384.655 292.324 384.541 292.718 384.321 293.073C384.108 293.428 383.824 293.712 383.469 293.925C383.121 294.131 382.737 294.234 382.318 294.234ZM395.582 294V272.182H403.934C405.511 272.182 406.821 272.43 407.865 272.928C408.916 273.418 409.701 274.089 410.219 274.941C410.745 275.793 411.008 276.759 411.008 277.839C411.008 278.727 410.837 279.487 410.496 280.119C410.156 280.744 409.697 281.251 409.122 281.642C408.547 282.033 407.904 282.313 407.194 282.484V282.697C407.968 282.739 408.71 282.977 409.42 283.411C410.138 283.837 410.724 284.44 411.178 285.222C411.633 286.003 411.86 286.947 411.86 288.055C411.86 289.185 411.587 290.2 411.04 291.102C410.493 291.997 409.669 292.704 408.568 293.222C407.467 293.741 406.082 294 404.413 294H395.582ZM399.534 290.697H403.785C405.219 290.697 406.253 290.424 406.885 289.877C407.524 289.323 407.844 288.613 407.844 287.746C407.844 287.1 407.684 286.518 407.364 285.999C407.045 285.474 406.59 285.062 406.001 284.763C405.411 284.458 404.708 284.305 403.891 284.305H399.534V290.697ZM399.534 281.461H403.444C404.126 281.461 404.74 281.337 405.287 281.088C405.834 280.832 406.263 280.474 406.576 280.012C406.896 279.543 407.055 278.989 407.055 278.35C407.055 277.505 406.757 276.809 406.161 276.262C405.571 275.715 404.694 275.442 403.529 275.442H399.534V281.461ZM415.298 294V272.182H429.489V275.495H419.251V281.418H428.754V284.732H419.251V290.687H429.574V294H415.298ZM433.521 294V272.182H441.703C443.379 272.182 444.785 272.494 445.922 273.119C447.065 273.744 447.928 274.604 448.51 275.697C449.1 276.784 449.395 278.02 449.395 279.405C449.395 280.804 449.1 282.047 448.51 283.134C447.921 284.22 447.051 285.076 445.9 285.701C444.75 286.319 443.333 286.628 441.65 286.628H436.227V283.379H441.117C442.097 283.379 442.9 283.208 443.525 282.867C444.15 282.526 444.611 282.058 444.91 281.461C445.215 280.864 445.368 280.179 445.368 279.405C445.368 278.631 445.215 277.949 444.91 277.359C444.611 276.77 444.146 276.312 443.514 275.985C442.889 275.651 442.083 275.484 441.096 275.484H437.474V294H433.521ZM452.828 294V272.182H456.78V281.418H466.89V272.182H470.853V294H466.89V284.732H456.78V294H452.828ZM475.152 272.182H479.072V287.054H479.275L489.534 272.182H493.082V294H489.129V279.138H488.948L478.657 294H475.152V272.182ZM496.43 275.495V272.182H513.837V275.495H507.094V294H503.173V275.495H496.43ZM517.193 294V272.182H531.383V275.495H521.145V281.418H530.648V284.732H521.145V290.687H531.469V294H517.193ZM554.091 279.543H550.107C549.993 278.89 549.784 278.311 549.478 277.807C549.173 277.295 548.793 276.862 548.338 276.507C547.884 276.152 547.365 275.886 546.783 275.708C546.208 275.523 545.586 275.431 544.919 275.431C543.732 275.431 542.681 275.729 541.765 276.326C540.849 276.915 540.132 277.782 539.613 278.925C539.095 280.062 538.835 281.45 538.835 283.091C538.835 284.76 539.095 286.166 539.613 287.31C540.139 288.446 540.856 289.305 541.765 289.888C542.681 290.463 543.729 290.751 544.908 290.751C545.561 290.751 546.172 290.665 546.74 290.495C547.316 290.317 547.83 290.058 548.285 289.717C548.747 289.376 549.134 288.957 549.446 288.46C549.766 287.963 549.986 287.395 550.107 286.756L554.091 286.777C553.942 287.814 553.619 288.787 553.122 289.696C552.632 290.605 551.989 291.408 551.193 292.104C550.398 292.793 549.468 293.332 548.402 293.723C547.337 294.107 546.154 294.298 544.855 294.298C542.937 294.298 541.225 293.854 539.72 292.967C538.214 292.079 537.028 290.797 536.161 289.121C535.295 287.445 534.862 285.435 534.862 283.091C534.862 280.74 535.298 278.73 536.172 277.061C537.046 275.385 538.235 274.103 539.741 273.215C541.247 272.327 542.951 271.884 544.855 271.884C546.069 271.884 547.198 272.054 548.242 272.395C549.286 272.736 550.217 273.237 551.034 273.897C551.85 274.55 552.521 275.353 553.047 276.305C553.58 277.249 553.928 278.329 554.091 279.543ZM560.385 280.609H565.924C567.593 280.609 569.025 280.882 570.218 281.429C571.418 281.969 572.338 282.732 572.977 283.719C573.616 284.707 573.936 285.868 573.936 287.203C573.936 288.545 573.616 289.728 572.977 290.751C572.338 291.766 571.418 292.562 570.218 293.137C569.025 293.712 567.593 294 565.924 294H557.753V272.182H561.716V290.761H565.924C566.805 290.761 567.551 290.594 568.162 290.261C568.772 289.927 569.234 289.487 569.547 288.94C569.866 288.393 570.026 287.8 570.026 287.161C570.026 286.237 569.671 285.452 568.961 284.806C568.257 284.153 567.245 283.826 565.924 283.826H560.385V280.609ZM585.22 294V272.182H589.173V281.418H599.283V272.182H603.246V294H599.283V284.732H589.173V294H585.22ZM610.346 294H606.128L613.809 272.182H618.688L626.38 294H622.161L616.334 276.656H616.163L610.346 294ZM610.485 285.445H621.991V288.62H610.485V285.445ZM650.725 272.182V275.495H640.647V294H636.695V272.182H650.725ZM652.651 294V290.719L653.269 290.687C654.107 290.637 654.771 290.335 655.261 289.781C655.758 289.227 656.124 288.336 656.358 287.107C656.6 285.879 656.76 284.231 656.838 282.164L657.2 272.182H671.497V294H667.63V275.431H660.886L660.545 283.389C660.446 285.776 660.183 287.754 659.757 289.323C659.338 290.893 658.649 292.065 657.69 292.839C656.738 293.613 655.414 294 653.716 294H652.651ZM678.608 294H674.389L682.07 272.182H686.95L694.642 294H690.423L684.595 276.656H684.425L678.608 294ZM678.747 285.445H690.252V288.62H678.747V285.445ZM697.515 294V272.182H705.868C707.444 272.182 708.755 272.43 709.799 272.928C710.85 273.418 711.635 274.089 712.153 274.941C712.679 275.793 712.941 276.759 712.941 277.839C712.941 278.727 712.771 279.487 712.43 280.119C712.089 280.744 711.631 281.251 711.056 281.642C710.48 282.033 709.838 282.313 709.127 282.484V282.697C709.902 282.739 710.644 282.977 711.354 283.411C712.071 283.837 712.657 284.44 713.112 285.222C713.566 286.003 713.794 286.947 713.794 288.055C713.794 289.185 713.52 290.2 712.973 291.102C712.426 291.997 711.603 292.704 710.502 293.222C709.401 293.741 708.016 294 706.347 294H697.515ZM701.468 290.697H705.718C707.153 290.697 708.186 290.424 708.819 289.877C709.458 289.323 709.777 288.613 709.777 287.746C709.777 287.1 709.618 286.518 709.298 285.999C708.978 285.474 708.524 285.062 707.934 284.763C707.345 284.458 706.642 284.305 705.825 284.305H701.468V290.697ZM701.468 281.461H705.377C706.059 281.461 706.674 281.337 707.221 281.088C707.767 280.832 708.197 280.474 708.51 280.012C708.829 279.543 708.989 278.989 708.989 278.35C708.989 277.505 708.691 276.809 708.094 276.262C707.505 275.715 706.627 275.442 705.463 275.442H701.468V281.461ZM717.232 294V272.182H721.184V281.418H731.295V272.182H735.258V294H731.295V284.732H721.184V294H717.232ZM741.506 294.298V290.974H742.752C743.313 290.974 743.775 290.893 744.137 290.729C744.499 290.566 744.791 290.332 745.011 290.026C745.238 289.721 745.426 289.366 745.575 288.961L745.863 288.226L738.065 272.182H742.198L747.632 283.858L752.33 272.182H756.399L748.878 289.973C748.53 290.74 748.129 291.454 747.674 292.114C747.22 292.768 746.627 293.297 745.895 293.702C745.171 294.099 744.226 294.298 743.061 294.298H741.506ZM763.167 272.182V294H759.214V272.182H763.167ZM767.886 281.823V284.998H761.015V281.823H767.886ZM786.7 283.091C786.7 285.442 786.26 287.455 785.379 289.131C784.506 290.8 783.313 292.079 781.8 292.967C780.294 293.854 778.586 294.298 776.675 294.298C774.765 294.298 773.053 293.854 771.54 292.967C770.035 292.072 768.842 290.79 767.961 289.121C767.087 287.445 766.651 285.435 766.651 283.091C766.651 280.74 767.087 278.73 767.961 277.061C768.842 275.385 770.035 274.103 771.54 273.215C773.053 272.327 774.765 271.884 776.675 271.884C778.586 271.884 780.294 272.327 781.8 273.215C783.313 274.103 784.506 275.385 785.379 277.061C786.26 278.73 786.7 280.74 786.7 283.091ZM782.727 283.091C782.727 281.436 782.467 280.04 781.949 278.904C781.438 277.761 780.727 276.898 779.818 276.315C778.909 275.726 777.862 275.431 776.675 275.431C775.489 275.431 774.442 275.726 773.533 276.315C772.624 276.898 771.91 277.761 771.391 278.904C770.88 280.04 770.624 281.436 770.624 283.091C770.624 284.746 770.88 286.145 771.391 287.288C771.91 288.425 772.624 289.288 773.533 289.877C774.442 290.46 775.489 290.751 776.675 290.751C777.862 290.751 778.909 290.46 779.818 289.877C780.727 289.288 781.438 288.425 781.949 287.288C782.467 286.145 782.727 284.746 782.727 283.091ZM791.303 294.234C790.656 294.234 790.102 294.007 789.641 293.553C789.179 293.098 788.952 292.544 788.959 291.891C788.952 291.251 789.179 290.705 789.641 290.25C790.102 289.795 790.656 289.568 791.303 289.568C791.928 289.568 792.471 289.795 792.933 290.25C793.401 290.705 793.639 291.251 793.646 291.891C793.639 292.324 793.526 292.718 793.305 293.073C793.092 293.428 792.808 293.712 792.453 293.925C792.105 294.131 791.722 294.234 791.303 294.234Z" fill="#FFF9EE"/>
<path d="M176.873 182.264V156.075L254.021 34.1818H275.861V71.4688H262.544L210.609 153.766V155.187H318.297V182.264H176.873ZM263.609 216V174.274L263.964 162.555V34.1818H295.037V216H263.609ZM468.133 182.264V156.075L545.281 34.1818H567.121V71.4688H553.804L501.868 153.766V155.187H609.557V182.264H468.133ZM554.869 216V174.274L555.224 162.555V34.1818H586.297V216H554.869Z" fill="#FFF9EE"/>
<ellipse cx="397.5" cy="83.7353" rx="25.735" ry="25.7353" fill="#FBB1CF"/>
<ellipse cx="397.5" cy="157.265" rx="25.735" ry="25.7353" fill="#FBB1CF"/>
<ellipse cx="434.265" cy="120.5" rx="25.735" ry="25.7353" fill="#FBB1CF"/>
<ellipse cx="360.735" cy="120.5" rx="25.735" ry="25.7353" fill="#FBB1CF"/>
</svg>
