<svg width="100" height="22" viewBox="0 0 100 22" fill="none" xmlns="http://www.w3.org/2000/svg">
<path d="M13.9083 22L6.72789 12.4652H4.78897V22H0.836559V0.181818H4.78897V9.15199H5.77974L13.5354 0.181818H18.404L9.78542 10.1321L18.7769 22H13.9083ZM21.4616 22V0.181818H25.414V9.41832H35.5241V0.181818H39.4871V22H35.5241V12.7315H25.414V22H21.4616ZM43.7858 0.181818H47.7062V15.054H47.9086L58.1679 0.181818H61.7155V22H57.7631V7.13849H57.5819L47.2907 22H43.7858V0.181818ZM80.0526 0.181818V3.49503H69.9745V22H66.0221V0.181818H80.0526ZM83.5603 22H79.3415L87.0226 0.181818H91.9019L99.5937 22H95.3749L89.5475 4.65625H89.377L83.5603 22ZM83.6988 13.4453H95.2045V16.62H83.6988V13.4453Z" fill="white"/>
</svg>
