<svg width="97" height="22" viewBox="0 0 97 22" fill="none" xmlns="http://www.w3.org/2000/svg">
<path d="M13.4506 22L6.44062 12.6996H4.86392V22H0.250994V0.181818H4.86392V8.89631H5.79077L13.0351 0.181818H18.7773L10.2652 10.3026L19.1714 22H13.4506ZM20.5912 22V0.181818H25.2042V9.18395H34.5685V0.181818H39.1708V22H34.5685V12.9872H25.2042V22H20.5912ZM42.074 0.181818H46.6763V13.9034H46.8574L56.2857 0.181818H60.3233V22H55.7104V8.26776H55.5506L46.0691 22H42.074V0.181818ZM77.7126 0.181818V3.98508H67.8475V22H63.2346V0.181818H77.7126ZM80.8609 22H75.9177L83.4496 0.181818H89.3942L96.9156 22H91.9724L86.5072 5.16761H86.3367L80.8609 22ZM80.5519 13.424H92.2281V17.0249H80.5519V13.424Z" fill="#526B4B"/>
</svg>
