<svg width="507" height="553" viewBox="0 0 507 553" fill="none" xmlns="http://www.w3.org/2000/svg">
<path d="M449 31V37.0277C449 69.4955 422.68 95.8158 390.212 95.8158V89.7881C390.212 57.3203 416.532 31 449 31Z" fill="white"/>
<path d="M390.212 90.8999C390.212 108.076 404.136 122 421.312 122H421.74C421.74 104.824 407.816 90.8999 390.64 90.8999H390.212Z" fill="white"/>
<path d="M331 31V37.0277C331 69.4955 357.32 95.8158 389.788 95.8158V89.7881C389.788 57.3203 363.468 31 331 31Z" fill="white"/>
<path d="M389.788 90.8999C389.788 108.076 375.864 122 358.688 122H358.26C358.26 104.824 372.184 90.8999 389.36 90.8999H389.788Z" fill="white"/>
<path d="M242 101V107.028C242 139.496 215.68 165.816 183.212 165.816V159.788C183.212 127.32 209.532 101 242 101Z" fill="white"/>
<path d="M183.212 160.9C183.212 178.076 197.136 192 214.312 192H214.74C214.74 174.824 200.816 160.9 183.64 160.9H183.212Z" fill="white"/>
<path d="M124 101V107.028C124 139.496 150.32 165.816 182.788 165.816V159.788C182.788 127.32 156.468 101 124 101Z" fill="white"/>
<path d="M182.788 160.9C182.788 178.076 168.864 192 151.688 192H151.26C151.26 174.824 165.184 160.9 182.36 160.9H182.788Z" fill="white"/>
<path d="M331 363V369.028C331 401.496 304.68 427.816 272.212 427.816V421.788C272.212 389.32 298.532 363 331 363Z" fill="white"/>
<path d="M272.212 422.9C272.212 440.076 286.136 454 303.312 454H303.74C303.74 436.824 289.816 422.9 272.64 422.9H272.212Z" fill="white"/>
<path d="M213 363V369.028C213 401.496 239.32 427.816 271.788 427.816V421.788C271.788 389.32 245.468 363 213 363Z" fill="white"/>
<path d="M271.788 422.9C271.788 440.076 257.864 454 240.688 454H240.26C240.26 436.824 254.184 422.9 271.36 422.9H271.788Z" fill="white"/>
<path d="M118 289V295.028C118 327.496 91.6797 353.816 59.2119 353.816V347.788C59.2119 315.32 85.5322 289 118 289Z" fill="white"/>
<path d="M59.2124 348.9C59.2124 366.076 73.1363 380 90.3124 380H90.7399C90.7399 362.824 76.8159 348.9 59.6399 348.9H59.2124Z" fill="white"/>
<path d="M0 289L0 295.028C0 327.496 26.3203 353.816 58.7881 353.816L58.7881 347.788C58.7881 315.32 32.4678 289 0 289Z" fill="white"/>
<path d="M58.7876 348.9C58.7876 366.076 44.8637 380 27.6876 380H27.2601C27.2601 362.824 41.1841 348.9 58.3601 348.9H58.7876Z" fill="white"/>
<path d="M463 490V490.532C463 515.021 443.148 534.873 418.66 534.873V534.34C418.66 509.852 438.512 490 463 490Z" fill="white"/>
<path d="M418.66 531.469C418.66 543.36 428.3 553 440.191 553H442.439C442.439 541.109 432.8 531.469 420.909 531.469H418.66Z" fill="white"/>
<path d="M374 490V490.532C374 515.021 393.852 534.873 418.34 534.873V534.34C418.34 509.852 398.488 490 374 490Z" fill="white"/>
<path d="M418.34 531.469C418.34 543.36 408.7 553 396.809 553H394.561C394.561 541.109 404.2 531.469 416.091 531.469H418.34Z" fill="white"/>
<path d="M507 220V220.532C507 245.021 487.148 264.873 462.66 264.873V264.34C462.66 239.852 482.512 220 507 220Z" fill="white"/>
<path d="M462.66 261.469C462.66 273.36 472.3 283 484.191 283H486.439C486.439 271.109 476.8 261.469 464.909 261.469H462.66Z" fill="white"/>
<path d="M418 220V220.532C418 245.021 437.852 264.873 462.34 264.873V264.34C462.34 239.852 442.488 220 418 220Z" fill="white"/>
<path d="M462.34 261.469C462.34 273.36 452.7 283 440.809 283H438.561C438.561 271.109 448.2 261.469 460.091 261.469H462.34Z" fill="white"/>
<path d="M177 504C177 518.948 164.882 531.066 149.934 531.066H143.62C143.62 516.118 155.738 504 170.686 504H177Z" fill="white"/>
<path d="M143.621 529.013C143.621 536.186 149.435 542 156.607 542H161.522C161.522 534.828 155.707 529.013 148.535 529.013H143.621Z" fill="white"/>
<path d="M110 504C110 518.948 122.118 531.066 137.066 531.066H143.38C143.38 516.118 131.262 504 116.314 504H110Z" fill="white"/>
<path d="M143.379 529.013C143.379 536.186 137.565 542 130.393 542H125.478C125.478 534.828 131.293 529.013 138.465 529.013H143.379Z" fill="white"/>
<path d="M97 0V7.50721C97 28.1435 80.271 44.8725 59.6347 44.8725V37.3653C59.6347 16.729 76.3637 0 97 0Z" fill="white"/>
<path d="M59.6348 41.4692V42.9614C59.6348 54.0284 68.6064 63 79.6734 63V61.5079C79.6734 50.4408 70.7018 41.4692 59.6348 41.4692Z" fill="white"/>
<path d="M22 0V7.50721C22 28.1435 38.729 44.8725 59.3653 44.8725V37.3653C59.3653 16.729 42.6363 0 22 0Z" fill="white"/>
<path d="M59.3652 41.4692V42.9614C59.3652 54.0284 50.3936 63 39.3266 63V61.5079C39.3266 50.4408 48.2982 41.4692 59.3652 41.4692Z" fill="white"/>
</svg>
