<svg width="291" height="47" viewBox="0 0 291 47" fill="none" xmlns="http://www.w3.org/2000/svg">
<rect width="291" height="45" rx="5" fill="#526B4B"/>
<path d="M53.2985 34L45.6224 23.7507H42.8747V34H40.1707V11.6697H42.8747V21.352H44.0523L52.9932 11.6697H56.2206L47.1925 21.4828L56.5259 34H53.2985ZM60.2769 34.3053V31.7757H61.6726C62.2105 31.7757 62.6611 31.6703 63.0246 31.4595C63.3953 31.2487 63.7006 30.9761 63.9405 30.6417C64.1876 30.3074 64.3912 29.9584 64.5511 29.595L64.9 28.7663L57.1803 11.6697H60.1025L66.252 25.5389L71.8782 11.6697H74.7568L67.0371 30.38C66.7318 31.0779 66.3829 31.7248 65.9903 32.3209C65.6051 32.9169 65.0781 33.3967 64.4093 33.7601C63.7479 34.1236 62.8501 34.3053 61.7162 34.3053H60.2769ZM94.0425 11.6697V34H91.3385V14.0684H80.0861V34H77.382V11.6697H94.0425ZM98.5759 11.6697H101.236V29.2461H101.454L113.666 11.6697H116.283V34H113.579V16.4672H113.361L101.193 34H98.5759V11.6697ZM119.552 14.0684V11.6697H136.299V14.0684H129.278V34H126.574V14.0684H119.552ZM141.558 21.0467H147.925C149.525 21.0467 150.873 21.3083 151.971 21.8317C153.076 22.3551 153.912 23.0929 154.478 24.0451C155.053 24.9974 155.34 26.1204 155.34 27.4143C155.34 28.7082 155.053 29.8494 154.478 30.838C153.912 31.8266 153.076 32.6007 151.971 33.1604C150.873 33.7201 149.525 34 147.925 34H139.552V11.6697H142.256V31.6448H147.925C148.943 31.6448 149.805 31.4413 150.51 31.0343C151.222 30.6199 151.76 30.0893 152.123 29.4423C152.494 28.7881 152.679 28.0976 152.679 27.3707C152.679 26.3021 152.269 25.3826 151.447 24.6121C150.626 23.8343 149.452 23.4454 147.925 23.4454H141.558V21.0467ZM179.532 34L171.856 23.7507H169.109V34H166.405V11.6697H169.109V21.352H170.286L179.227 11.6697H182.455L173.426 21.4828L182.76 34H179.532ZM185.333 34V11.6697H188.037V21.6136H199.944V11.6697H202.648V34H199.944V24.0124H188.037V34H185.333ZM207.14 11.6697H209.801V29.2461H210.019L222.231 11.6697H224.848V34H222.144V16.4672H221.926L209.757 34H207.14V11.6697ZM242.814 11.6697V14.0684H232.042V34H229.338V11.6697H242.814ZM247.255 34.3053V31.7757H248.651C249.188 31.7757 249.639 31.6703 250.003 31.4595C250.373 31.2487 250.679 30.9761 250.918 30.6417C251.166 30.3074 251.369 29.9584 251.529 29.595L251.878 28.7663L244.158 11.6697H247.08L253.23 25.5389L258.856 11.6697H261.735L254.015 30.38C253.71 31.0779 253.361 31.7248 252.968 32.3209C252.583 32.9169 252.056 33.3967 251.387 33.7601C250.726 34.1236 249.828 34.3053 248.694 34.3053H247.255Z" fill="white"/>
</svg>
