<svg width="100" height="100" viewBox="0 0 100 100" fill="none" xmlns="http://www.w3.org/2000/svg">
<rect x="1" y="1" width="98" height="98" stroke="#FFF9EE" stroke-width="2"/>
<path d="M30.7048 33.6083C30.1665 33.6083 29.5998 33.375 29.2032 32.9667C28.3815 32.1208 28.3815 30.7208 29.2032 29.875L39.4882 19.2875C40.3098 18.4417 41.6698 18.4417 42.4915 19.2875C43.3132 20.1333 43.3132 21.5333 42.4915 22.3792L32.2065 32.9667C31.7815 33.375 31.2432 33.6083 30.7048 33.6083Z" fill="#526B4B"/>
<path d="M69.2945 33.6083C68.7562 33.6083 68.2179 33.4042 67.7929 32.9667L57.5079 22.3792C56.6862 21.5333 56.6862 20.1333 57.5079 19.2875C58.3295 18.4417 59.6895 18.4417 60.5112 19.2875L70.7962 29.875C71.6179 30.7208 71.6179 32.1208 70.7962 32.9667C70.3995 33.375 69.8328 33.6083 69.2945 33.6083Z" fill="#526B4B"/>
<path d="M73.262 45.9167C73.0637 45.9167 72.8653 45.9167 72.667 45.9167H72.0153H27.3337C25.3503 45.9458 23.0837 45.9458 21.4403 44.2542C20.137 42.9417 19.542 40.9 19.542 37.8958C19.542 29.875 25.237 29.875 27.957 29.875H72.0437C74.7637 29.875 80.4587 29.875 80.4587 37.8958C80.4587 40.9292 79.8637 42.9417 78.5603 44.2542C77.087 45.7708 75.1037 45.9167 73.262 45.9167ZM27.957 41.5417H72.6953C73.9703 41.5708 75.1603 41.5708 75.557 41.1625C75.7553 40.9583 76.1803 40.2583 76.1803 37.8958C76.1803 34.6 75.387 34.25 72.0153 34.25H27.957C24.5853 34.25 23.792 34.6 23.792 37.8958C23.792 40.2583 24.2453 40.9583 24.4153 41.1625C24.812 41.5417 26.0303 41.5417 27.277 41.5417H27.957Z" fill="#526B4B"/>
<path d="M43.6533 68.375C42.4917 68.375 41.5283 67.3833 41.5283 66.1875V55.8333C41.5283 54.6375 42.4917 53.6458 43.6533 53.6458C44.815 53.6458 45.7783 54.6375 45.7783 55.8333V66.1875C45.7783 67.4125 44.815 68.375 43.6533 68.375Z" fill="#526B4B"/>
<path d="M56.6865 68.375C55.5249 68.375 54.5615 67.3833 54.5615 66.1875V55.8333C54.5615 54.6375 55.5249 53.6458 56.6865 53.6458C57.8482 53.6458 58.8115 54.6375 58.8115 55.8333V66.1875C58.8115 67.4125 57.8482 68.375 56.6865 68.375Z" fill="#526B4B"/>
<path d="M58.1888 81.3542H41.1038C30.9604 81.3542 28.6938 75.1417 27.8154 69.7458L23.8204 44.5167C23.6221 43.3208 24.4154 42.2125 25.5771 42.0083C26.7388 41.8042 27.8154 42.6208 28.0138 43.8167L32.0088 69.0167C32.8304 74.1792 34.5304 76.9792 41.1038 76.9792H58.1888C65.4704 76.9792 66.2921 74.3542 67.2271 69.2792L71.9871 43.7583C72.2138 42.5625 73.3188 41.775 74.4804 42.0375C75.6421 42.2708 76.3788 43.4083 76.1521 44.6042L71.3921 70.125C70.2871 76.0458 68.4454 81.3542 58.1888 81.3542Z" fill="#526B4B"/>
</svg>
