<svg width="152" height="24" viewBox="0 0 152 24" fill="none" xmlns="http://www.w3.org/2000/svg">
<path d="M19.6421 8.82031H14.9759C14.8907 8.21662 14.7167 7.6804 14.4539 7.21165C14.1911 6.73579 13.8538 6.33097 13.4419 5.99716C13.0299 5.66335 12.5541 5.40767 12.0143 5.23011C11.4816 5.05256 10.9028 4.96378 10.2778 4.96378C9.14853 4.96378 8.16486 5.24432 7.32679 5.8054C6.48873 6.35937 5.83887 7.16903 5.37722 8.23438C4.91557 9.29261 4.68475 10.5781 4.68475 12.0909C4.68475 13.6463 4.91557 14.9531 5.37722 16.0114C5.84597 17.0696 6.49938 17.8686 7.33745 18.4084C8.17552 18.9482 9.14498 19.218 10.2458 19.218C10.8637 19.218 11.4355 19.1364 11.961 18.973C12.4937 18.8097 12.966 18.5717 13.3779 18.2592C13.7899 17.9396 14.1308 17.5526 14.4007 17.098C14.6776 16.6435 14.8694 16.125 14.9759 15.5426L19.6421 15.5639C19.5214 16.5653 19.2196 17.5312 18.7366 18.4616C18.2607 19.3849 17.618 20.2124 16.8083 20.9439C16.0058 21.6683 15.047 22.2436 13.9319 22.6697C12.824 23.0888 11.5704 23.2983 10.1713 23.2983C8.22523 23.2983 6.48517 22.858 4.95108 21.9773C3.42409 21.0966 2.21671 19.8217 1.32892 18.1527C0.448242 16.4837 0.00790129 14.4631 0.00790129 12.0909C0.00790129 9.71165 0.455345 7.6875 1.35023 6.01847C2.24512 4.34943 3.45961 3.07812 4.9937 2.20455C6.52779 1.32386 8.25364 0.883522 10.1713 0.883522C11.4355 0.883522 12.6073 1.06108 13.6869 1.41619C14.7735 1.77131 15.7359 2.28977 16.574 2.97159C17.412 3.64631 18.0938 4.47372 18.6194 5.45383C19.1521 6.43395 19.493 7.55611 19.6421 8.82031ZM42.9997 12.0909C42.9997 14.4702 42.5487 16.4943 41.6468 18.1634C40.7519 19.8324 39.5303 21.1072 37.982 21.9879C36.4408 22.8615 34.7078 23.2983 32.7831 23.2983C30.8442 23.2983 29.1041 22.858 27.5629 21.9773C26.0218 21.0966 24.8037 19.8217 23.9088 18.1527C23.0139 16.4837 22.5665 14.4631 22.5665 12.0909C22.5665 9.71165 23.0139 7.6875 23.9088 6.01847C24.8037 4.34943 26.0218 3.07812 27.5629 2.20455C29.1041 1.32386 30.8442 0.883522 32.7831 0.883522C34.7078 0.883522 36.4408 1.32386 37.982 2.20455C39.5303 3.07812 40.7519 4.34943 41.6468 6.01847C42.5487 7.6875 42.9997 9.71165 42.9997 12.0909ZM38.3229 12.0909C38.3229 10.5497 38.0921 9.25 37.6304 8.19176C37.1759 7.13352 36.5331 6.33097 35.7021 5.78409C34.8712 5.23722 33.8982 4.96378 32.7831 4.96378C31.6681 4.96378 30.695 5.23722 29.8641 5.78409C29.0331 6.33097 28.3868 7.13352 27.9252 8.19176C27.4706 9.25 27.2433 10.5497 27.2433 12.0909C27.2433 13.6321 27.4706 14.9318 27.9252 15.9901C28.3868 17.0483 29.0331 17.8509 29.8641 18.3977C30.695 18.9446 31.6681 19.218 32.7831 19.218C33.8982 19.218 34.8712 18.9446 35.7021 18.3977C36.5331 17.8509 37.1759 17.0483 37.6304 15.9901C38.0921 14.9318 38.3229 13.6321 38.3229 12.0909ZM46.4168 23V1.18182H60.8948V4.98508H51.0297V9.24645H54.5773C56.3032 9.24645 57.7911 9.52699 59.0411 10.0881C60.2982 10.642 61.2677 11.4268 61.9495 12.4425C62.6313 13.4581 62.9722 14.6548 62.9722 16.0327C62.9722 17.4034 62.6313 18.6143 61.9495 19.6655C61.2677 20.7095 60.2982 21.5263 59.0411 22.1158C57.7911 22.7053 56.3032 23 54.5773 23H46.4168ZM51.0297 19.2926H54.5773C55.4012 19.2926 56.0972 19.1435 56.6654 18.8452C57.2336 18.5398 57.6633 18.1385 57.9545 17.6413C58.2528 17.1371 58.4019 16.5866 58.4019 15.9901C58.4019 15.1236 58.0716 14.392 57.4111 13.7955C56.7577 13.1918 55.8131 12.8899 54.5773 12.8899H51.0297V19.2926ZM68.9941 9.24645H74.1929C75.9259 9.24645 77.4173 9.52699 78.6673 10.0881C79.9245 10.642 80.8939 11.4268 81.5757 12.4425C82.2575 13.4581 82.5949 14.6548 82.5878 16.0327C82.5949 17.4034 82.2575 18.6143 81.5757 19.6655C80.8939 20.7095 79.9245 21.5263 78.6673 22.1158C77.4173 22.7053 75.9259 23 74.1929 23H66.0431V1.18182H70.6453V19.2926H74.1929C75.0239 19.2926 75.7235 19.1435 76.2916 18.8452C76.8598 18.5398 77.2895 18.1385 77.5807 17.6413C77.879 17.1371 78.0246 16.5866 78.0175 15.9901C78.0246 15.1236 77.6979 14.392 77.0374 13.7955C76.384 13.1918 75.4358 12.8899 74.1929 12.8899H68.9941V9.24645ZM88.9692 1.18182V23H84.3669V1.18182H88.9692ZM91.9335 4.98508V1.18182H109.853V4.98508H103.173V23H98.6132V4.98508H91.9335ZM112.804 1.18182H117.406V14.9034H117.587L127.015 1.18182H131.053V23H126.44V9.26776H126.28L116.799 23H112.804V1.18182ZM151.611 23H147.009V4.95312H143.898C143.01 4.95312 142.272 5.08452 141.682 5.3473C141.1 5.60298 140.663 5.9794 140.372 6.47656C140.081 6.97372 139.935 7.58452 139.935 8.30895C139.935 9.02628 140.081 9.62642 140.372 10.1094C140.663 10.5923 141.1 10.9545 141.682 11.196C142.265 11.4375 142.996 11.5582 143.877 11.5582H148.884V15.2656H143.131C141.462 15.2656 140.035 14.9886 138.848 14.4347C137.662 13.8807 136.757 13.0852 136.132 12.0483C135.507 11.0043 135.194 9.75781 135.194 8.30895C135.194 6.86719 135.5 5.61364 136.111 4.5483C136.728 3.47585 137.62 2.64844 138.785 2.06605C139.956 1.47656 141.366 1.18182 143.014 1.18182H151.611V23ZM139.839 13.071H144.814L139.509 23H134.417L139.839 13.071Z" fill="#526B4B"/>
</svg>
