<svg width="151" height="24" viewBox="0 0 151 24" fill="none" xmlns="http://www.w3.org/2000/svg">
<path d="M19.8499 8.54332H15.8655C15.7519 7.88991 15.5423 7.31108 15.237 6.80682C14.9316 6.29545 14.5516 5.86222 14.097 5.5071C13.6425 5.15199 13.124 4.88565 12.5416 4.7081C11.9664 4.52344 11.3449 4.43111 10.6773 4.43111C9.49121 4.43111 8.44007 4.7294 7.52388 5.32599C6.60769 5.91548 5.89036 6.78196 5.37189 7.92543C4.85343 9.06179 4.59419 10.4503 4.59419 12.0909C4.59419 13.7599 4.85343 15.1662 5.37189 16.3097C5.89746 17.446 6.61479 18.3054 7.52388 18.8878C8.44007 19.4631 9.48766 19.7507 10.6666 19.7507C11.32 19.7507 11.9308 19.6655 12.499 19.495C13.0743 19.3175 13.5892 19.0582 14.0438 18.7173C14.5054 18.3764 14.8925 17.9574 15.205 17.4602C15.5246 16.9631 15.7448 16.3949 15.8655 15.7557L19.8499 15.777C19.7007 16.8139 19.3776 17.7869 18.8804 18.696C18.3904 19.6051 17.7476 20.4077 16.9521 21.1037C16.1567 21.7926 15.2263 22.3324 14.161 22.723C13.0956 23.1065 11.9131 23.2983 10.6134 23.2983C8.69576 23.2983 6.98411 22.8544 5.47843 21.9666C3.97275 21.0788 2.78667 19.7969 1.92019 18.1207C1.05371 16.4446 0.620472 14.4347 0.620472 12.0909C0.620472 9.74006 1.05726 7.73011 1.93084 6.06108C2.80442 4.38494 3.99405 3.10298 5.49973 2.2152C7.00542 1.32741 8.70996 0.883522 10.6134 0.883522C11.8279 0.883522 12.9571 1.05398 14.0012 1.39489C15.0452 1.7358 15.9756 2.23651 16.7923 2.89702C17.6091 3.55043 18.2803 4.35298 18.8058 5.30469C19.3385 6.24929 19.6865 7.32884 19.8499 8.54332ZM42.9651 12.0909C42.9651 14.4418 42.5248 16.4553 41.6441 18.1314C40.7705 19.8004 39.5773 21.0788 38.0645 21.9666C36.5589 22.8544 34.8508 23.2983 32.9403 23.2983C31.0297 23.2983 29.3181 22.8544 27.8053 21.9666C26.2996 21.0717 25.1064 19.7898 24.2258 18.1207C23.3522 16.4446 22.9154 14.4347 22.9154 12.0909C22.9154 9.74006 23.3522 7.73011 24.2258 6.06108C25.1064 4.38494 26.2996 3.10298 27.8053 2.2152C29.3181 1.32741 31.0297 0.883522 32.9403 0.883522C34.8508 0.883522 36.5589 1.32741 38.0645 2.2152C39.5773 3.10298 40.7705 4.38494 41.6441 6.06108C42.5248 7.73011 42.9651 9.74006 42.9651 12.0909ZM38.9914 12.0909C38.9914 10.4361 38.7322 9.04048 38.2137 7.90412C37.7023 6.76065 36.9921 5.89773 36.083 5.31534C35.1739 4.72585 34.1263 4.43111 32.9403 4.43111C31.7542 4.43111 30.7066 4.72585 29.7975 5.31534C28.8884 5.89773 28.1746 6.76065 27.6562 7.90412C27.1448 9.04048 26.8891 10.4361 26.8891 12.0909C26.8891 13.7457 27.1448 15.1449 27.6562 16.2884C28.1746 17.4247 28.8884 18.2876 29.7975 18.8771C30.7066 19.4595 31.7542 19.7507 32.9403 19.7507C34.1263 19.7507 35.1739 19.4595 36.083 18.8771C36.9921 18.2876 37.7023 17.4247 38.2137 16.2884C38.7322 15.1449 38.9914 13.7457 38.9914 12.0909ZM46.7018 23V1.18182H60.7323V4.49503H50.6542V9.60866H54.8623C56.5313 9.60866 57.9624 9.8821 59.1556 10.429C60.3559 10.9687 61.2757 11.7322 61.9149 12.7195C62.5541 13.7067 62.8737 14.8679 62.8737 16.2031C62.8737 17.5455 62.5541 18.728 61.9149 19.7507C61.2757 20.7663 60.3559 21.5618 59.1556 22.1371C57.9624 22.7124 56.5313 23 54.8623 23H46.7018ZM50.6542 19.7614H54.8623C55.743 19.7614 56.4887 19.5945 57.0995 19.2607C57.7103 18.9268 58.172 18.4865 58.4845 17.9396C58.8041 17.3928 58.9639 16.7997 58.9639 16.1605C58.9639 15.2372 58.6088 14.4524 57.8985 13.8061C57.1954 13.1527 56.1833 12.826 54.8623 12.826H50.6542V19.7614ZM69.0047 9.60866H74.5445C76.2135 9.60866 77.6446 9.8821 78.8378 10.429C80.0381 10.9687 80.9578 11.7322 81.597 12.7195C82.2362 13.7067 82.5558 14.8679 82.5558 16.2031C82.5558 17.5455 82.2362 18.728 81.597 19.7507C80.9578 20.7663 80.0381 21.5618 78.8378 22.1371C77.6446 22.7124 76.2135 23 74.5445 23H66.3733V1.18182H70.3364V19.7614H74.5445C75.4252 19.7614 76.1709 19.5945 76.7817 19.2607C77.3925 18.9268 77.8541 18.4865 78.1666 17.9396C78.4862 17.3928 78.646 16.7997 78.646 16.1605C78.646 15.2372 78.2909 14.4524 77.5807 13.8061C76.8776 13.1527 75.8655 12.826 74.5445 12.826H69.0047V9.60866ZM88.4046 1.18182V23H84.4415V1.18182H88.4046ZM91.7391 4.49503V1.18182H109.147V4.49503H102.403V23H98.4827V4.49503H91.7391ZM112.503 1.18182H116.423V16.054H116.625L126.885 1.18182H130.432V23H126.48V8.13849H126.299L116.008 23H112.503V1.18182ZM150.847 23H146.884V4.48438H143.262C142.282 4.48438 141.475 4.62997 140.843 4.92116C140.218 5.20526 139.753 5.62429 139.448 6.17827C139.149 6.72514 139 7.38565 139 8.1598C139 8.93395 139.149 9.58736 139.448 10.12C139.746 10.6456 140.208 11.0469 140.833 11.3239C141.465 11.5937 142.267 11.7287 143.24 11.7287H148.546V15.0099H142.708C141.032 15.0099 139.618 14.733 138.468 14.179C137.317 13.6179 136.443 12.826 135.847 11.8033C135.257 10.7734 134.963 9.55895 134.963 8.1598C134.963 6.76776 135.254 5.54972 135.836 4.50568C136.426 3.45454 137.292 2.63778 138.436 2.0554C139.579 1.47301 140.985 1.18182 142.654 1.18182H150.847V23ZM139.565 13.1136H143.88L138.574 23H134.164L139.565 13.1136Z" fill="white"/>
</svg>
