<svg width="44" height="34" viewBox="0 0 44 34" fill="none" xmlns="http://www.w3.org/2000/svg">
<path d="M44 -3.05176e-05V2.24762C44 14.3542 34.1856 24.1686 22.079 24.1686V21.9209C22.079 9.81432 31.8934 -3.05176e-05 44 -3.05176e-05Z" fill="#FFF9EE"/>
<path d="M22.0791 22.3355C22.0791 28.7401 27.2711 33.9321 33.6757 33.9321H33.8351C33.8351 27.5275 28.6431 22.3355 22.2385 22.3355H22.0791Z" fill="#FFF9EE"/>
<path d="M0 -3.05176e-05L0 2.24762C0 14.3542 9.81436 24.1686 21.921 24.1686V21.9209C21.921 9.81432 12.1066 -3.05176e-05 0 -3.05176e-05Z" fill="#FFF9EE"/>
<path d="M21.9209 22.3355C21.9209 28.7401 16.7289 33.9321 10.3243 33.9321H10.1649C10.1649 27.5275 15.3569 22.3355 21.7615 22.3355H21.9209Z" fill="#FFF9EE"/>
</svg>
