<svg width="89" height="63" viewBox="0 0 89 63" fill="none" xmlns="http://www.w3.org/2000/svg">
<path d="M89 0V0.532345C89 25.0207 69.1482 44.8725 44.6598 44.8725V44.3402C44.6598 19.8518 64.5116 0 89 0Z" fill="white"/>
<path d="M44.6602 41.4692C44.6602 53.3603 54.2998 62.9999 66.1909 62.9999H68.4394C68.4394 51.1088 58.7997 41.4692 46.9086 41.4692H44.6602Z" fill="white"/>
<path d="M0 0L0 0.532345C0 25.0207 19.8518 44.8725 44.3402 44.8725V44.3402C44.3402 19.8518 24.4884 0 0 0Z" fill="white"/>
<path d="M44.3398 41.4692C44.3398 53.3603 34.7002 62.9999 22.8091 62.9999H20.5606C20.5606 51.1088 30.2003 41.4692 42.0914 41.4692H44.3398Z" fill="white"/>
</svg>
