<svg width="508" height="91" viewBox="0 0 508 91" fill="none" xmlns="http://www.w3.org/2000/svg">
<path d="M0.605114 89V1.72727H60.179V18.858H21.6989V36.7557H56.3864V53.929H21.6989V89H0.605114ZM153.173 45.3636C153.173 54.9659 151.326 63.1051 147.633 69.7812C143.94 76.4574 138.94 81.5284 132.633 84.9943C126.354 88.4602 119.309 90.1932 111.496 90.1932C103.656 90.1932 96.5959 88.446 90.3175 84.9517C84.0391 81.4574 79.0533 76.3864 75.3601 69.7386C71.6953 63.0625 69.8629 54.9375 69.8629 45.3636C69.8629 35.7614 71.6953 27.6222 75.3601 20.946C79.0533 14.2699 84.0391 9.19886 90.3175 5.73295C96.5959 2.26704 103.656 0.534088 111.496 0.534088C119.309 0.534088 126.354 2.26704 132.633 5.73295C138.94 9.19886 143.94 14.2699 147.633 20.946C151.326 27.6222 153.173 35.7614 153.173 45.3636ZM131.61 45.3636C131.61 39.6818 130.8 34.8807 129.181 30.9602C127.59 27.0398 125.289 24.071 122.278 22.054C119.295 20.0369 115.701 19.0284 111.496 19.0284C107.32 19.0284 103.727 20.0369 100.715 22.054C97.7038 24.071 95.3885 27.0398 93.7692 30.9602C92.1783 34.8807 91.3828 39.6818 91.3828 45.3636C91.3828 51.0455 92.1783 55.8466 93.7692 59.767C95.3885 63.6875 97.7038 66.6562 100.715 68.6733C103.727 70.6903 107.32 71.6989 111.496 71.6989C115.701 71.6989 119.295 70.6903 122.278 68.6733C125.289 66.6562 127.59 63.6875 129.181 59.767C130.8 55.8466 131.61 51.0455 131.61 45.3636ZM165.488 89V1.72727H225.062V18.858H186.582V36.7557H221.269V53.929H186.582V89H165.488ZM243.663 89H220.992L250.438 1.72727H278.521L307.967 89H285.296L264.799 23.7159H264.117L243.663 89ZM240.637 54.6534H288.023V70.6761H240.637V54.6534ZM338.457 1.72727V89H317.363V1.72727H338.457ZM351.699 89V1.72727H387.75C394.284 1.72727 399.923 2.90625 404.668 5.2642C409.44 7.59375 413.119 10.946 415.705 15.321C418.29 19.6676 419.582 24.8239 419.582 30.7898C419.582 36.8409 418.261 41.983 415.619 46.2159C412.977 50.4205 409.227 53.6307 404.369 55.8466C399.511 58.0341 393.759 59.1278 387.111 59.1278H364.312V42.5085H383.19C386.372 42.5085 389.028 42.0966 391.159 41.2727C393.318 40.4205 394.952 39.142 396.06 37.4375C397.168 35.7045 397.722 33.4886 397.722 30.7898C397.722 28.0909 397.168 25.8608 396.06 24.0994C394.952 22.3097 393.318 20.9744 391.159 20.0938C389 19.1847 386.344 18.7301 383.19 18.7301H372.793V89H351.699ZM400.832 49.1136L422.565 89H399.554L378.247 49.1136H400.832ZM422.938 1.72727H446.504L464.955 38.2472H465.722L484.174 1.72727H507.739L475.822 59.8523V89H454.856V59.8523L422.938 1.72727Z" fill="#FFF9EE"/>
</svg>
