<svg width="44" height="34" viewBox="0 0 44 34" fill="none" xmlns="http://www.w3.org/2000/svg">
<path d="M44 0V2.24765C44 14.3543 34.1856 24.1686 22.079 24.1686V21.921C22.079 9.81435 31.8934 0 44 0Z" fill="#526B4B"/>
<path d="M22.0791 22.3354C22.0791 28.7401 27.2711 33.932 33.6757 33.932H33.8351C33.8351 27.5274 28.6431 22.3354 22.2385 22.3354H22.0791Z" fill="#526B4B"/>
<path d="M0 0L0 2.24765C0 14.3543 9.81436 24.1686 21.921 24.1686V21.921C21.921 9.81435 12.1066 0 0 0Z" fill="#526B4B"/>
<path d="M21.9209 22.3354C21.9209 28.7401 16.7289 33.932 10.3243 33.932H10.1649C10.1649 27.5274 15.3569 22.3354 21.7615 22.3354H21.9209Z" fill="#526B4B"/>
</svg>
