<svg width="148" height="24" viewBox="0 0 148 24" fill="none" xmlns="http://www.w3.org/2000/svg">
<path d="M0.237127 1.18182H5.92605L11.9346 15.8409H12.1903L18.1988 1.18182H23.8877V23H19.4133V8.79901H19.2322L13.5858 22.8935H10.539L4.89267 8.74574H4.71156V23H0.237127V1.18182ZM31.449 23H26.5058L34.0377 1.18182H39.9823L47.5036 23H42.5605L37.0953 6.16761H36.9248L31.449 23ZM31.14 14.424H42.8161V18.0249H31.14V14.424ZM64.6077 1.18182V4.98508H54.7426V23H50.1297V1.18182H64.6077ZM68.656 23H63.7128L71.2448 1.18182H77.1894L84.7107 23H79.7675L74.3023 6.16761H74.1318L68.656 23ZM68.347 14.424H80.0232V18.0249H68.347V14.424ZM95.2735 23.2983C93.6826 23.2983 92.2657 23.0249 91.0228 22.478C89.787 21.924 88.8105 21.1641 88.0931 20.1982C87.3829 19.2251 87.0171 18.103 86.9958 16.8317H91.6407C91.6691 17.3643 91.8431 17.8331 92.1627 18.2379C92.4894 18.6357 92.9227 18.9446 93.4624 19.1648C94.0022 19.3849 94.6095 19.495 95.2842 19.495C95.9873 19.495 96.6088 19.3707 97.1485 19.1222C97.6883 18.8736 98.1109 18.5291 98.4163 18.0888C98.7217 17.6484 98.8744 17.1406 98.8744 16.5653C98.8744 15.983 98.711 15.468 98.3843 15.0206C98.0647 14.5661 97.6031 14.2109 96.9994 13.9553C96.4028 13.6996 95.6926 13.5717 94.8687 13.5717H92.8339V10.1839H94.8687C95.5647 10.1839 96.1791 10.0632 96.7117 9.82173C97.2515 9.58026 97.6705 9.24645 97.9688 8.82031C98.2671 8.38707 98.4163 7.88281 98.4163 7.30753C98.4163 6.76065 98.2849 6.28125 98.0221 5.86932C97.7664 5.45028 97.4042 5.12358 96.9355 4.8892C96.4738 4.65483 95.934 4.53764 95.3161 4.53764C94.6911 4.53764 94.1194 4.65128 93.6009 4.87855C93.0825 5.09872 92.667 5.41477 92.3545 5.8267C92.042 6.23864 91.8751 6.72159 91.8538 7.27557H87.4326C87.4539 6.01847 87.8126 4.91051 88.5086 3.9517C89.2046 2.9929 90.1421 2.24361 91.3211 1.70383C92.5072 1.15696 93.846 0.883522 95.3374 0.883522C96.8431 0.883522 98.1606 1.15696 99.2899 1.70383C100.419 2.25071 101.296 2.98935 101.921 3.91974C102.553 4.84304 102.866 5.87997 102.859 7.03054C102.866 8.25213 102.486 9.27131 101.719 10.0881C100.959 10.9048 99.9681 11.4233 98.7465 11.6435V11.8139C100.352 12.0199 101.573 12.5774 102.411 13.4865C103.256 14.3885 103.676 15.5178 103.668 16.8743C103.676 18.1172 103.317 19.2216 102.592 20.1875C101.875 21.1534 100.884 21.9134 99.6201 22.4673C98.3559 23.0213 96.907 23.2983 95.2735 23.2983ZM107.112 1.18182H111.714V14.9034H111.896L121.324 1.18182H125.361V23H120.748V9.26776H120.589L111.107 23H107.112V1.18182ZM129.173 23V1.18182H133.786V10.1839H143.15V1.18182H147.752V23H143.15V13.9872H133.786V23H129.173Z" fill="#526B4B"/>
</svg>
