<svg width="146" height="24" viewBox="0 0 146 24" fill="none" xmlns="http://www.w3.org/2000/svg">
<path d="M0.430309 1.18182H5.26696L11.7442 16.9915H11.9999L18.4772 1.18182H23.3138V23H19.5212V8.01065H19.3188L13.289 22.9361H10.4552L4.42534 7.97869H4.22292V23H0.430309V1.18182ZM30.4197 23H26.2009L33.882 1.18182H38.7613L46.453 23H42.2343L36.4069 5.65625H36.2364L30.4197 23ZM30.5582 14.4453H42.0638V17.62H30.5582V14.4453ZM63.3573 1.18182V4.49503H53.2792V23H49.3268V1.18182H63.3573ZM66.865 23H62.6462L70.3273 1.18182H75.2066L82.8983 23H78.6796L72.8522 5.65625H72.6817L66.865 23ZM67.0035 14.4453H78.5091V17.62H67.0035V14.4453ZM93.3893 23.2983C91.8552 23.2983 90.4916 23.0355 89.2984 22.5099C88.1123 21.9844 87.1748 21.2528 86.4859 20.3153C85.797 19.3778 85.4312 18.2947 85.3886 17.0661H89.3943C89.4298 17.6555 89.6251 18.1705 89.9802 18.6108C90.3353 19.044 90.8076 19.3814 91.3971 19.6229C91.9866 19.8643 92.6471 19.9851 93.3786 19.9851C94.1599 19.9851 94.8524 19.8501 95.4561 19.5803C96.0597 19.3033 96.532 18.9197 96.873 18.4297C97.2139 17.9396 97.3808 17.375 97.3737 16.7358C97.3808 16.0753 97.2103 15.4929 96.8623 14.9886C96.5143 14.4844 96.01 14.0902 95.3495 13.8061C94.6961 13.522 93.9078 13.38 92.9845 13.38H91.0562V10.3331H92.9845C93.7444 10.3331 94.4085 10.2017 94.9767 9.93892C95.5519 9.67614 96.0029 9.30682 96.3296 8.83097C96.6563 8.34801 96.8161 7.79048 96.809 7.15838C96.8161 6.54048 96.6776 6.00426 96.3936 5.54972C96.1166 5.08807 95.7224 4.7294 95.211 4.47372C94.7068 4.21804 94.1137 4.0902 93.4319 4.0902C92.7643 4.0902 92.1464 4.21094 91.5782 4.45241C91.01 4.69389 90.5519 5.03835 90.2039 5.4858C89.8559 5.92614 89.6713 6.4517 89.6499 7.0625H85.8467C85.8751 5.84091 86.2267 4.76847 86.9014 3.84517C87.5832 2.91477 88.4923 2.19034 89.6286 1.67188C90.765 1.14631 92.0399 0.883522 93.4532 0.883522C94.9092 0.883522 96.1734 1.15696 97.2458 1.70383C98.3254 2.24361 99.1599 2.97159 99.7494 3.88778C100.339 4.80398 100.634 5.81605 100.634 6.92401C100.641 8.1527 100.278 9.18253 99.547 10.0135C98.8225 10.8445 97.8708 11.3878 96.6919 11.6435V11.8139C98.2259 12.027 99.4014 12.5952 100.218 13.5185C101.042 14.4347 101.45 15.5746 101.443 16.9382C101.443 18.1598 101.095 19.2536 100.399 20.2195C99.7103 21.1783 98.7586 21.9311 97.5441 22.478C96.3367 23.0249 94.9518 23.2983 93.3893 23.2983ZM105.313 1.18182H109.234V16.054H109.436L119.695 1.18182H123.243V23H119.29V8.13849H119.109L108.818 23H105.313V1.18182ZM127.549 23V1.18182H131.502V10.4183H141.612V1.18182H145.575V23H141.612V13.7315H131.502V23H127.549Z" fill="#FFF9EE"/>
</svg>
