<svg width="50" height="22" viewBox="0 0 50 22" fill="none" xmlns="http://www.w3.org/2000/svg">
<path d="M0.374645 0.181818H5.21129L11.6886 15.9915H11.9442L18.4215 0.181818H23.2582V22H19.4656V7.01065H19.2631L13.2333 21.9361H10.3995L4.36967 6.97869H4.16726V22H0.374645V0.181818ZM30.2362 8.60866H35.7759C37.445 8.60866 38.8761 8.8821 40.0692 9.42898C41.2695 9.96875 42.1893 10.7322 42.8285 11.7195C43.4677 12.7067 43.7873 13.8679 43.7873 15.2031C43.7873 16.5455 43.4677 17.728 42.8285 18.7507C42.1893 19.7663 41.2695 20.5618 40.0692 21.1371C38.8761 21.7124 37.445 22 35.7759 22H27.6048V0.181818H31.5678V18.7614H35.7759C36.6566 18.7614 37.4023 18.5945 38.0131 18.2607C38.6239 17.9268 39.0856 17.4865 39.3981 16.9396C39.7177 16.3928 39.8775 15.7997 39.8775 15.1605C39.8775 14.2372 39.5224 13.4524 38.8121 12.8061C38.109 12.1527 37.0969 11.826 35.7759 11.826H30.2362V8.60866ZM49.636 0.181818V22H45.6729V0.181818H49.636Z" fill="#FFF9EE"/>
</svg>
