<svg width="52" height="22" viewBox="0 0 52 22" fill="none" xmlns="http://www.w3.org/2000/svg">
<path d="M0.767401 0.181818H6.45632L12.4648 14.8409H12.7205L18.729 0.181818H24.418V22H19.9435V7.79901H19.7624L14.1161 21.8935H11.0692L5.42294 7.74574H5.24183V22H0.767401V0.181818ZM31.2548 8.24645H36.4537C38.1866 8.24645 39.6781 8.52699 40.9281 9.08807C42.1852 9.64205 43.1547 10.4268 43.8365 11.4425C44.5183 12.4581 44.8556 13.6548 44.8485 15.0327C44.8556 16.4034 44.5183 17.6143 43.8365 18.6655C43.1547 19.7095 42.1852 20.5263 40.9281 21.1158C39.6781 21.7053 38.1866 22 36.4537 22H28.3038V0.181818H32.9061V18.2926H36.4537C37.2846 18.2926 37.9842 18.1435 38.5524 17.8452C39.1206 17.5398 39.5502 17.1385 39.8414 16.6413C40.1397 16.1371 40.2853 15.5866 40.2782 14.9901C40.2853 14.1236 39.9586 13.392 39.2981 12.7955C38.6447 12.1918 37.6966 11.8899 36.4537 11.8899H31.2548V8.24645ZM51.2299 0.181818V22H46.6277V0.181818H51.2299Z" fill="#526B4B"/>
</svg>
