<svg width="222" height="24" viewBox="0 0 222 24" fill="none" xmlns="http://www.w3.org/2000/svg">
<path d="M13.2985 23L5.62241 12.7507H2.87473V23H0.170664V0.669651H2.87473V10.352H4.05231L12.9932 0.669651H16.2206L7.19251 10.4828L16.5259 23H13.2985ZM20.2769 23.3053V20.7757H21.6726C22.2105 20.7757 22.6611 20.6703 23.0246 20.4595C23.3953 20.2487 23.7006 19.9761 23.9405 19.6417C24.1876 19.3074 24.3912 18.9584 24.5511 18.595L24.9 17.7663L17.1803 0.669651H20.1025L26.252 14.5389L31.8782 0.669651H34.7568L27.0371 19.38C26.7318 20.0779 26.3829 20.7248 25.9903 21.3209C25.6051 21.9169 25.0781 22.3967 24.4093 22.7601C23.7479 23.1236 22.8501 23.3053 21.7162 23.3053H20.2769ZM54.0425 0.669651V23H51.3385V3.06842H40.0861V23H37.382V0.669651H54.0425ZM58.5759 0.669651H61.2363V18.2461H61.4544L73.6663 0.669651H76.2831V23H73.5791V5.46719H73.361L61.1927 23H58.5759V0.669651ZM79.5517 3.06842V0.669651H96.2994V3.06842H89.2776V23H86.5735V3.06842H79.5517ZM101.558 10.0467H107.925C109.525 10.0467 110.873 10.3083 111.971 10.8317C113.076 11.3551 113.912 12.0929 114.478 13.0451C115.053 13.9974 115.34 15.1204 115.34 16.4143C115.34 17.7082 115.053 18.8494 114.478 19.838C113.912 20.8266 113.076 21.6007 111.971 22.1604C110.873 22.7201 109.525 23 107.925 23H99.5516V0.669651H102.256V20.6448H107.925C108.943 20.6448 109.805 20.4413 110.51 20.0343C111.222 19.6199 111.76 19.0893 112.123 18.4423C112.494 17.7881 112.679 17.0976 112.679 16.3707C112.679 15.3021 112.269 14.3826 111.447 13.6121C110.626 12.8343 109.452 12.4454 107.925 12.4454H101.558V10.0467ZM139.532 23L131.856 12.7507H129.109V23H126.405V0.669651H129.109V10.352H130.286L139.227 0.669651H142.455L133.426 10.4828L142.76 23H139.532ZM145.333 23V0.669651H148.037V10.6136H159.944V0.669651H162.648V23H159.944V13.0124H148.037V23H145.333ZM167.14 0.669651H169.801V18.2461H170.019L182.231 0.669651H184.848V23H182.144V5.46719H181.926L169.757 23H167.14V0.669651ZM202.814 0.669651V3.06842H192.042V23H189.338V0.669651H202.814ZM207.255 23.3053V20.7757H208.651C209.188 20.7757 209.639 20.6703 210.003 20.4595C210.373 20.2487 210.679 19.9761 210.918 19.6417C211.166 19.3074 211.369 18.9584 211.529 18.595L211.878 17.7663L204.158 0.669651H207.08L213.23 14.5389L218.856 0.669651H221.735L214.015 19.38C213.71 20.0779 213.361 20.7248 212.968 21.3209C212.583 21.9169 212.056 22.3967 211.387 22.7601C210.726 23.1236 209.828 23.3053 208.694 23.3053H207.255Z" fill="white"/>
</svg>
